<svg width="24" height="24" viewBox="0 0 24 24" fill="none" xmlns="http://www.w3.org/2000/svg">
<path d="M14.9995 17H19.9995L18.5946 15.5951C18.2136 15.2141 17.9995 14.6973 17.9995 14.1585V11C17.9995 8.38757 16.3299 6.16509 13.9995 5.34142V5C13.9995 3.89543 13.1041 3 11.9995 3C10.8949 3 9.99951 3.89543 9.99951 5V5.34142C7.66913 6.16509 5.99951 8.38757 5.99951 11V14.1585C5.99951 14.6973 5.78546 15.2141 5.40444 15.5951L3.99951 17H8.99951M14.9995 17V18C14.9995 19.6569 13.6564 21 11.9995 21C10.3427 21 8.99951 19.6569 8.99951 18V17M14.9995 17H8.99951" stroke="#112145" stroke-width="2" stroke-linecap="round" stroke-linejoin="round"/>
</svg>
