<svg width="8" height="8" viewBox="0 0 8 8" fill="none" xmlns="http://www.w3.org/2000/svg">
<path d="M6.88262 3.66089C6.79195 3.5449 6.66772 3.48562 6.51266 3.48562H6.51175C6.01257 3.48613 5.51293 3.48562 5.01374 3.48562H4.79884C4.8673 3.35225 4.93576 3.21837 5.00422 3.085C5.08946 2.91892 5.1747 2.75285 5.25948 2.58678C5.29711 2.51319 5.3352 2.43961 5.37283 2.36603C5.47122 2.17491 5.57278 1.97767 5.67025 1.78093C5.73917 1.64245 5.75096 1.48047 5.7029 1.33688C5.65529 1.19482 5.55283 1.08393 5.4227 1.03283C5.21052 0.949541 4.98835 1.04765 4.86911 1.27658C4.75984 1.48711 4.65012 1.70173 4.54358 1.90919C4.50685 1.98073 4.47058 2.05227 4.43386 2.12381L4.21079 2.55918C4.14187 2.69357 4.07296 2.82848 4.00404 2.96287C3.9646 2.88571 3.9256 2.81008 3.88797 2.73599C3.64042 2.25258 3.39332 1.76918 3.14577 1.28578C3.09136 1.17949 3.02471 1.10437 2.9422 1.05685C2.75993 0.952096 2.53641 0.99502 2.39858 1.16161C2.25395 1.33534 2.23264 1.57756 2.34327 1.7932C2.54911 2.19535 2.7554 2.59751 2.96124 2.99966L3.21015 3.48511C3.04602 3.48511 2.88235 3.48511 2.71822 3.48511H2.46387C2.35914 3.48511 2.25395 3.48511 2.14922 3.48511C1.92524 3.48511 1.69356 3.48511 1.46505 3.48562C1.23744 3.48664 1.04521 3.66549 1.00712 3.91128C0.969037 4.15911 1.08647 4.39622 1.29321 4.48666C1.37029 4.52039 1.44555 4.52499 1.50903 4.52499H1.50948C2.07441 4.52499 2.63888 4.52499 3.2038 4.52499C3.09726 4.73348 2.99026 4.94247 2.88326 5.15096C2.82341 5.26798 2.76356 5.38449 2.70371 5.50099C2.58266 5.73656 2.46206 5.97213 2.34191 6.20821C2.27299 6.34363 2.25576 6.49539 2.29385 6.63592C2.33057 6.77133 2.4149 6.8812 2.53097 6.94558C2.59762 6.98237 2.66654 7.00026 2.73409 7.00026C2.89686 7.00026 3.05101 6.89704 3.14668 6.71052C3.43186 6.15405 3.71659 5.59808 4.00132 5.04161L4.00449 5.03547C4.06389 5.15147 4.12328 5.26798 4.18268 5.38397C4.29693 5.60728 4.41119 5.83059 4.52544 6.05389C4.55763 6.11674 4.58982 6.18011 4.62201 6.24347C4.70453 6.40546 4.78977 6.57358 4.87727 6.7371C4.96387 6.89908 5.11258 6.99617 5.27535 6.99617C5.43585 6.99617 5.58184 6.90164 5.66617 6.74374C5.75957 6.56847 5.75413 6.37684 5.64985 6.17449C5.40366 5.69619 5.15429 5.2087 4.91309 4.73756L4.80473 4.5255H6.47185H6.48727C6.50676 4.5255 6.52853 4.5255 6.55301 4.52397C6.74933 4.50761 6.89577 4.39213 6.96469 4.19897C7.03224 4.01041 7.00187 3.81368 6.88217 3.65987L6.88262 3.66089Z" fill="#9E2F2F"/>
</svg>
