<svg width="24" height="25" viewBox="0 0 24 25" fill="none" xmlns="http://www.w3.org/2000/svg">
<g clip-path="url(#clip0_2340_62306)">
<path d="M22.9966 12.1651C22.9812 12.0746 22.9664 11.9836 22.952 11.8931C22.9199 11.6947 22.8873 11.4901 22.8455 11.2874C22.542 9.80779 21.9532 8.42836 21.4737 7.39222C21.056 6.48897 20.3837 5.79035 19.4765 5.3161C18.5309 4.8221 17.4592 4.59196 16.1036 4.59196C16.1003 4.59196 16.0969 4.59196 16.0935 4.59196C16.0312 4.59196 15.9948 4.58377 15.9809 4.57896C14.9408 3.61793 13.6658 3.14368 12.0829 3.12827C10.4295 3.11335 9.10226 3.58664 8.02767 4.57703C8.01569 4.58281 7.98164 4.59148 7.94328 4.59196C7.1377 4.58425 6.42323 4.66707 5.75862 4.84473C4.1772 5.26795 3.1309 6.08839 2.56076 7.35226C2.14023 8.2844 1.75662 9.26757 1.42144 10.2739C1.03879 11.4217 0.92131 12.3861 1.0503 13.3091C1.15483 14.0568 1.44733 14.6134 1.94459 15.0111C2.54829 15.4945 3.27955 15.6255 4.18007 15.4122C4.27693 15.3891 4.36996 15.3621 4.46346 15.3322C4.34598 16.065 4.31529 16.7329 4.36852 17.3694C4.50326 18.9703 5.22013 20.1807 6.49851 20.967C7.33814 21.4831 8.30244 21.7941 9.62541 21.9761C10.3643 22.0777 11.1301 22.1283 11.9395 22.1283C12.5039 22.1283 13.0894 22.1037 13.7008 22.0546C14.725 21.9723 15.6107 21.7893 16.4076 21.4951C17.6117 21.0507 18.4604 20.3877 19.0018 19.4681C19.5043 18.6149 19.7148 17.6135 19.6458 16.4059C19.6266 16.0742 19.5897 15.7396 19.5542 15.4155C19.5513 15.3881 19.5479 15.3606 19.5451 15.3332C19.6367 15.3621 19.7297 15.39 19.8246 15.4136C20.5755 15.6004 21.2675 15.52 21.8261 15.1811C22.3564 14.859 22.7252 14.3264 22.8921 13.6403C22.9204 13.5233 22.9429 13.4063 22.9645 13.2927C22.9741 13.2417 22.9836 13.1906 22.9942 13.1396L22.999 13.116V12.1853L22.9956 12.1651H22.9966ZM20.3411 13.9798C20.1574 13.947 19.9603 13.8854 19.7551 13.7973C19.3475 13.622 19.1447 13.3596 19.0766 12.9196C18.844 11.415 18.5745 9.81405 18.0734 8.23769C17.8179 7.43411 17.5402 6.77304 17.2084 6.18372C18.8738 6.37294 19.8428 7.32915 20.2025 8.21121C20.2466 8.31954 20.2912 8.42788 20.3358 8.53621C20.7376 9.51553 21.1534 10.5286 21.3677 11.5801C21.4598 12.0322 21.5509 12.6273 21.4367 13.2215C21.3221 13.8161 20.9333 14.0847 20.3411 13.9788V13.9798ZM12.7456 19.1696C12.7365 18.9491 12.7557 18.8889 12.9628 18.8027C13.8547 18.4296 14.4397 17.3997 14.2661 16.507C14.1501 15.909 13.6557 15.4844 13.0645 15.4748C12.244 15.4613 11.567 15.4613 10.9335 15.4757C10.5868 15.4834 10.2684 15.6293 10.0383 15.8859C9.80283 16.1483 9.6887 16.4912 9.71795 16.8508C9.79803 17.8359 10.3197 18.5403 11.2275 18.8875C11.2404 18.8923 11.25 18.8966 11.2567 18.9C11.2572 18.9072 11.2577 18.9168 11.2572 18.9293C11.2519 19.3179 11.2529 19.7127 11.2534 20.094C11.2534 20.2616 11.2538 20.4291 11.2534 20.5962C11.204 20.5933 11.1551 20.5904 11.1057 20.5876C10.8213 20.5707 10.5523 20.5548 10.2814 20.5283C9.17467 20.42 8.36189 20.2192 7.64598 19.8779C6.51817 19.34 5.93173 18.4397 5.85261 17.1262C5.79938 16.2384 5.97105 15.3727 6.13744 14.5359C6.26451 13.8965 6.38295 13.245 6.49707 12.6148C6.61311 11.9744 6.73347 11.3129 6.86246 10.6648C7.09167 9.51601 7.41582 8.17944 8.0857 6.9743C8.78914 5.7085 9.72131 4.97955 10.9354 4.74603C11.3411 4.66803 11.7266 4.62903 12.0939 4.62903C13.0721 4.62903 13.919 4.90636 14.6617 5.4668C15.286 5.93768 15.7766 6.59779 16.2053 7.54485C16.726 8.69461 17.0041 9.9243 17.2271 11.0818C17.5441 12.7265 17.8131 14.168 18.0495 15.4882C18.2058 16.3616 18.2082 17.119 18.0567 17.8027C17.8212 18.8643 17.1442 19.5962 15.9857 20.0401C15.0333 20.4051 14.0197 20.5144 13.2424 20.5688C13.086 20.5798 12.9268 20.5861 12.7585 20.5928H12.7523C12.7528 20.5086 12.7537 20.4248 12.7542 20.3415C12.7576 19.9385 12.7609 19.5582 12.7451 19.1686L12.7456 19.1696ZM12.7394 16.9967C12.7149 17.0824 12.6693 17.1667 12.6046 17.2437C12.4617 17.4141 12.2479 17.521 12.0321 17.5307C11.8225 17.5388 11.6139 17.4575 11.4605 17.3053C11.3704 17.2163 11.3061 17.1108 11.2706 16.9967H12.7394V16.9967ZM6.79677 6.18372C6.64524 6.4779 6.50187 6.75571 6.37624 7.04412C5.7989 8.37058 5.49585 9.74712 5.25466 11.037C5.20239 11.3167 5.15252 11.6008 5.10457 11.8757C5.02785 12.3134 4.94873 12.766 4.8581 13.206C4.83604 13.3129 4.75645 13.4453 4.66438 13.5277C4.33831 13.8204 3.93073 13.9798 3.45409 14.0005C2.93478 14.0226 2.59001 13.6591 2.53391 13.0265C2.4826 12.4448 2.55213 11.8348 2.7588 11.0481C3.01582 10.0716 3.39751 9.06487 3.92593 7.96951C4.32297 7.14715 5.01538 6.62475 6.10531 6.32623C6.32589 6.26605 6.55509 6.22416 6.79677 6.18179C6.79677 6.18179 6.79677 6.18227 6.79677 6.18275V6.18372Z" fill="#00AFA1"/>
<path d="M9.4479 9.30322H9.4431C8.49127 9.30322 7.71255 10.049 7.66939 11.0028C7.65692 11.2782 7.77009 11.5353 7.97244 11.6894C8.09951 11.7867 8.25056 11.8363 8.40688 11.8363C8.48648 11.8363 8.56704 11.8233 8.64711 11.7973C8.96311 11.6942 9.14868 11.4424 9.17026 11.089C9.17841 10.958 9.22876 10.8815 9.33905 10.8324C9.41721 10.7977 9.49345 10.7992 9.56058 10.8372C9.6421 10.8834 9.69677 10.9763 9.71115 11.0914C9.77157 11.5777 10.1183 11.8801 10.5541 11.8276C10.9962 11.7737 11.2581 11.4077 11.2063 10.9162C11.108 9.98354 10.3686 9.30514 9.44838 9.30273L9.4479 9.30322Z" fill="#00AFA1"/>
<path d="M14.5636 10.8088H14.5655C14.7185 10.8098 14.8105 10.9191 14.8384 11.1338C14.8921 11.5488 15.2009 11.8348 15.584 11.8348C15.6041 11.8348 15.6238 11.8339 15.6444 11.8324C16.0678 11.7997 16.3584 11.4472 16.3349 10.9942C16.2865 10.0485 15.5121 9.30611 14.5727 9.30322H14.5674C13.6266 9.30322 12.8642 10.0201 12.7932 10.973C12.7597 11.4236 13.0407 11.7838 13.4622 11.829C13.888 11.8748 14.2284 11.5873 14.2912 11.1299C14.3205 10.9166 14.4121 10.8088 14.5636 10.8088Z" fill="#00AFA1"/>
</g>
<defs>
<clipPath id="clip0_2340_62306">
<rect width="22" height="19" fill="white" transform="translate(1 3.12842)"/>
</clipPath>
</defs>
</svg>
