<svg width="17" height="17" viewBox="0 0 17 17" fill="none" xmlns="http://www.w3.org/2000/svg">
<path d="M8.55599 14.8536L10.9443 11.6692C10.2809 11.1716 9.4516 10.8731 8.55599 10.8731C7.66038 10.8731 6.83111 11.1716 6.1677 11.6692L8.55599 14.8536ZM8.55599 2.91211C5.86916 2.91211 3.38799 3.80108 1.39111 5.3004L2.58526 6.8926C4.2438 5.64538 6.31365 4.90235 8.55599 4.90235C10.7983 4.90235 12.8682 5.64538 14.5267 6.8926L15.7209 5.3004C13.724 3.80108 11.2428 2.91211 8.55599 2.91211ZM8.55599 6.8926C6.76477 6.8926 5.11287 7.48304 3.77941 8.48479L4.97355 10.077C5.96867 9.32733 7.20926 8.88284 8.55599 8.88284C9.90272 8.88284 11.1433 9.32733 12.1384 10.077L13.3326 8.48479C11.9991 7.48304 10.3472 6.8926 8.55599 6.8926Z" fill="white"/>
</svg>
