<svg width="24" height="25" viewBox="0 0 24 25" fill="none" xmlns="http://www.w3.org/2000/svg">
<g clip-path="url(#clip0_2340_62284)">
<path d="M13.1572 2.12842C13.612 2.21979 14.0734 2.28395 14.509 2.45026C16.5972 3.24846 17.8799 4.67443 18.1939 6.77181C18.4925 8.76448 17.7479 10.4184 16.1029 11.7109C15.955 11.8269 15.9506 11.8685 16.1342 11.9403C18.0092 12.6718 19.4838 13.8519 20.5632 15.4601C21.3073 16.5683 21.7671 17.7756 21.9243 19.0794C21.9846 19.5809 22.0361 20.0814 21.9682 20.5891C21.7846 21.9545 20.4251 23.1202 18.9539 23.1228C14.6525 23.1305 10.3506 23.1305 6.04925 23.1228C4.57856 23.1202 3.20541 21.956 3.04048 20.5886C2.92267 19.6107 3.07445 18.6518 3.37363 17.7181C4.235 15.0274 6.04979 13.1153 8.78733 11.9706C8.82733 11.9537 8.86623 11.9337 8.90733 11.9213C9.0602 11.8762 9.04815 11.8238 8.93253 11.7381C7.96541 11.021 7.30294 10.1094 6.9676 8.9965C6.54021 7.5772 6.68925 6.20563 7.45199 4.91723C8.29637 3.48971 9.58897 2.5981 11.2892 2.23211C11.4734 2.19258 11.6597 2.16281 11.8443 2.12842C12.2816 2.12842 12.7194 2.12842 13.1566 2.12842H13.1572ZM12.4936 21.4673C14.5857 21.4673 16.6783 21.4709 18.7703 21.4658C19.6525 21.4638 20.2525 20.8832 20.2268 20.0563C20.2131 19.6066 20.1736 19.1569 20.0723 18.7155C19.7227 17.1884 18.9583 15.8774 17.7155 14.8292C15.7808 13.1979 13.5123 12.6164 10.9682 13.065C9.33199 13.3535 7.94514 14.1096 6.81637 15.2655C5.49034 16.6238 4.83226 18.2314 4.77253 20.0624C4.76486 20.2898 4.79938 20.5152 4.91336 20.7184C5.19664 21.2251 5.64651 21.4699 6.26075 21.4689C8.33856 21.4653 10.4158 21.4673 12.4936 21.4673V21.4673ZM16.4838 7.51919C16.4931 5.45158 14.7386 3.78897 12.5331 3.7746C10.3046 3.76023 8.52596 5.41052 8.51829 7.49969C8.51062 9.56678 10.2909 11.2499 12.4909 11.2545C14.6914 11.2592 16.475 9.59091 16.4838 7.51868V7.51919Z" fill="#00AFA1"/>
</g>
<defs>
<clipPath id="clip0_2340_62284">
<rect width="19" height="21" fill="white" transform="translate(3 2.12842)"/>
</clipPath>
</defs>
</svg>
