<svg width="74" height="14" viewBox="0 0 74 14" fill="none" xmlns="http://www.w3.org/2000/svg">
<path d="M29.9214 2.96477H27.0236V10.395H28.0851V8.14472H29.9214C31.8533 8.14472 33.0209 7.16817 33.0209 5.55475C33.0209 3.94132 31.8533 2.96477 29.9214 2.96477ZM29.8896 7.22124H28.0851V3.88825H29.8896C31.2482 3.88825 31.9594 4.49328 31.9594 5.55475C31.9594 6.61621 31.2482 7.22124 29.8896 7.22124ZM35.315 5.71397V4.76926H34.3384V10.395H35.3574V7.59276C35.3574 6.36146 36.0368 5.69274 37.1301 5.69274C37.2044 5.69274 37.2787 5.69274 37.3636 5.70335V4.71619C36.3764 4.71619 35.6759 5.05586 35.315 5.71397ZM39.129 3.68657C39.5324 3.68657 39.819 3.38936 39.819 3.00723C39.819 2.64634 39.5218 2.35974 39.129 2.35974C38.7363 2.35974 38.4391 2.65695 38.4391 3.02846C38.4391 3.39997 38.7363 3.68657 39.129 3.68657ZM38.6195 10.395H39.6385V4.76926H38.6195V10.395ZM44.5881 4.71619C43.6965 4.71619 42.9747 5.04524 42.5607 5.61843V4.76926H41.5841V10.395H42.6031V7.49722C42.6031 6.27654 43.3037 5.62905 44.3864 5.62905C45.3523 5.62905 45.9043 6.17039 45.9043 7.27432V10.395H46.9233V7.15756C46.9233 5.50167 45.9574 4.71619 44.5881 4.71619ZM51.2922 10.4587C52.3006 10.4587 53.1392 10.0341 53.585 9.24864L52.8101 8.76037C52.4492 9.31233 51.8973 9.56708 51.2816 9.56708C50.1777 9.56708 49.3497 8.80282 49.3497 7.58214C49.3497 6.38269 50.1777 5.60782 51.2816 5.60782C51.8973 5.60782 52.4492 5.86257 52.8101 6.41453L53.585 5.91564C53.1392 5.13016 52.3006 4.71619 51.2922 4.71619C49.562 4.71619 48.3201 5.90503 48.3201 7.58214C48.3201 9.25925 49.562 10.4587 51.2922 10.4587ZM55.4138 3.68657C55.8171 3.68657 56.1037 3.38936 56.1037 3.00723C56.1037 2.64634 55.8065 2.35974 55.4138 2.35974C55.021 2.35974 54.7238 2.65695 54.7238 3.02846C54.7238 3.39997 55.021 3.68657 55.4138 3.68657ZM54.9043 10.395H55.9233V4.76926H54.9043V10.395ZM60.8516 4.71619C60.0237 4.71619 59.3019 5.03463 58.8454 5.66089V4.76926H57.8689V12.4543H58.8879V9.54585C59.3549 10.1509 60.0555 10.4587 60.8516 10.4587C62.4969 10.4587 63.6963 9.31233 63.6963 7.58214C63.6963 5.86257 62.4969 4.71619 60.8516 4.71619ZM60.7667 9.56708C59.6946 9.56708 58.8773 8.78159 58.8773 7.58214C58.8773 6.3933 59.6946 5.60782 60.7667 5.60782C61.8494 5.60782 62.6667 6.3933 62.6667 7.58214C62.6667 8.78159 61.8494 9.56708 60.7667 9.56708ZM67.1011 4.71619C66.1988 4.71619 65.3603 4.97094 64.7765 5.43799L65.201 6.20224C65.6362 5.83073 66.3156 5.5972 66.9843 5.5972C67.9927 5.5972 68.4916 6.09609 68.4916 6.95588V7.15756H66.8782C65.201 7.15756 64.6172 7.90058 64.6172 8.80282C64.6172 9.77937 65.4239 10.4587 66.6977 10.4587C67.5787 10.4587 68.205 10.1615 68.5447 9.652V10.395H69.5106V6.99834C69.5106 5.45921 68.6402 4.71619 67.1011 4.71619ZM66.8675 9.67322C66.0927 9.67322 65.6256 9.32294 65.6256 8.76037C65.6256 8.28271 65.9122 7.88997 66.9206 7.88997H68.4916V8.67545C68.2368 9.32294 67.6318 9.67322 66.8675 9.67322ZM71.3963 10.395H72.4153V2.51896H71.3963V10.395Z" fill="#112145"/>
</svg>
