<svg width="273" height="80" viewBox="0 0 273 80" fill="none" xmlns="http://www.w3.org/2000/svg">
<path d="M80.3646 73.0855C81.3623 73.1204 82.1587 72.7886 82.7495 72.0902L84.4123 77.0141C82.6751 78.8562 80.1808 79.8514 76.9251 79.9998C74.7809 79.9998 73.0261 79.2447 71.6565 77.73C70.475 76.4772 69.8623 75.1502 69.8273 73.749C69.8273 74.0414 69.9936 72.4962 70.3262 69.1044L74.9297 51.4038C75.0041 51.2205 75.0391 51.0371 75.0391 50.8494C75.0391 50.2208 74.7415 49.745 74.1507 49.4133C73.8926 49.1907 73.595 49.0815 73.2624 49.0815C72.5973 49.0815 71.8753 49.3958 71.1007 50.02C69.9542 50.9411 69.3635 51.4212 69.3241 51.4562C68.7683 51.9713 68.3264 52.5824 67.9938 53.2808L63.8366 69.1001H56.1306L60.7866 51.6744C60.8216 51.4911 60.8435 51.3078 60.8435 51.1201C60.8435 50.4915 60.5459 50.0157 59.9552 49.6839C59.732 49.4613 59.4388 49.3522 59.0669 49.3522C58.4367 49.3522 57.7191 49.6665 56.9051 50.2907C55.5749 51.3601 54.7784 52.0586 54.5203 52.3947C53.8551 53.2415 53.3738 54.4987 53.0806 56.1574H53.0237L49.5842 69.1001H41.9307L48.8053 42.9922H56.4588L55.9031 45.0394C58.0823 43.7124 60.1915 43.0489 62.2263 43.0489C62.9658 43.0489 63.5741 43.1406 64.0554 43.3239C65.7533 44.0616 66.9742 45.1311 67.7137 46.5323C70.6325 44.0267 73.5381 42.7695 76.4175 42.7695C77.1176 42.7695 77.7303 42.8612 78.2466 43.0445C81.2792 44.3715 82.7932 46.6196 82.7932 49.793C82.7932 50.3823 82.7364 50.9193 82.627 51.3994L77.9709 69.1001C77.9316 70.6846 78.1722 71.7715 78.693 72.3652C79.0255 72.7712 79.5813 73.0112 80.3558 73.0855H80.3646Z" fill="#2D4875"/>
<path d="M90.403 60.3614C90.6612 61.946 91.1994 62.9238 92.009 63.2948C92.2321 63.4432 92.5078 63.5916 92.8404 63.7357C95.501 63.775 97.8115 62.7972 99.7719 60.8023L97.829 68.2143C96.2755 69.2096 94.6126 69.7072 92.8404 69.7072C91.2869 69.7072 89.7335 69.3187 88.1844 68.5461C84.7843 66.8873 83.082 63.7139 83.082 59.0344C83.082 56.5289 83.6728 54.0582 84.8543 51.6224C86.1496 48.9684 87.9393 46.8382 90.2323 45.2319C92.5253 43.6298 94.8358 42.8267 97.1638 42.8267C98.4591 42.8267 99.6581 43.0842 100.77 43.5993C103.688 44.5945 105.15 46.8077 105.15 50.2387C105.15 50.8673 105.093 51.4391 104.984 51.9542C104.467 54.2764 103.063 56.3237 100.77 58.0959C98.4766 59.8638 95.9823 60.7499 93.2824 60.7499C92.2846 60.7499 91.3219 60.6234 90.3986 60.3614H90.403ZM90.845 55.5511C91.5451 55.6995 92.2496 55.7737 92.9542 55.7737C94.8008 55.7737 96.3193 55.3328 97.5008 54.4467C98.7217 53.3772 99.3299 52.3078 99.3299 51.2383C99.3299 50.649 99.1067 50.0772 98.6648 49.5228C98.2228 48.9684 97.7021 48.6934 97.1113 48.6934C95.816 48.6934 94.5032 49.5403 93.173 51.2383C92.0658 52.6395 91.2869 54.08 90.845 55.5511V55.5511Z" fill="#2D4875"/>
<path d="M108.922 68.9344C106.004 67.6817 104.542 64.7483 104.542 60.1387C104.542 57.5938 105.076 55.0489 106.148 52.504C107.404 49.5925 109.075 47.2397 111.167 45.45C113.254 43.6603 115.333 42.7654 117.407 42.7654C119.481 42.7654 121.179 43.6865 122.396 45.5329L126.553 29.8228H134.207L123.892 69.096H116.186L116.685 67.3805C114.834 68.7075 113.027 69.371 111.25 69.371C110.436 69.371 109.662 69.2225 108.922 68.9301V68.9344ZM117.74 48.6365C115.744 48.6365 114.042 50.5004 112.637 54.2239C112.007 55.922 111.697 57.5414 111.697 59.091C111.697 61.6708 112.397 62.9629 113.806 62.9629C114.729 62.9629 115.709 62.3911 116.747 61.2474C117.779 60.1038 118.633 58.6283 119.298 56.8212C119.888 55.3108 120.186 53.8878 120.186 52.5608C120.186 49.9417 119.372 48.6322 117.744 48.6322L117.74 48.6365Z" fill="#2D4875"/>
<path d="M143.855 42.8831L136.981 69.1569H129.327L136.202 42.8831H143.855V42.8831ZM142.083 38.6228C140.827 38.662 139.755 38.3739 138.867 37.7672C137.978 37.1604 137.536 36.3922 137.536 35.4711C137.536 34.5501 137.978 33.7469 138.867 33.0659C139.755 32.385 140.827 32.0227 142.083 31.9877C143.339 31.9528 144.411 32.2365 145.299 32.8433C146.188 33.4501 146.63 34.2183 146.63 35.1394C146.63 36.0604 146.188 36.8636 145.299 37.5446C144.411 38.2255 143.339 38.5878 142.083 38.6228Z" fill="#2D4875"/>
<path d="M163.311 51.4826C161.333 50.0639 159.005 49.3524 156.331 49.3524C155.74 49.3524 155.149 49.5444 154.559 49.9242C153.968 50.304 153.675 50.7754 153.675 51.3298C153.675 51.8842 154.423 52.5433 155.915 53.3028C157.998 54.3417 159.39 55.1406 160.081 55.6949C161.538 56.9084 162.269 58.362 162.269 60.0601C162.269 63.0065 161.28 65.3681 159.298 67.1534C157.32 68.9388 154.834 69.8293 151.846 69.8293C150.839 69.8293 149.413 69.6197 147.575 69.205C145.562 68.7904 144.258 68.3582 143.667 67.9042L145.124 62.1379C147.032 63.2466 149.325 63.801 152.003 63.801C154.296 63.801 155.443 63.1593 155.443 61.8803C155.443 60.9113 154.756 60.0426 153.386 59.2831C152.012 58.5192 150.651 57.7771 149.294 57.0481C147.868 55.9743 147.159 54.6255 147.159 52.9929C147.159 50.3258 148.2 48.0908 150.283 46.288C152.261 44.59 154.607 43.7432 157.316 43.7432C160.405 43.7432 162.891 44.3848 164.768 45.6682L163.311 51.4869V51.4826Z" fill="#2D4875"/>
<path d="M198.266 72.8454C199.203 72.8803 199.951 72.5661 200.507 71.9113L202.069 76.5383C200.437 78.2713 198.091 79.2054 195.037 79.3451C193.024 79.3451 191.37 78.6336 190.087 77.2149C188.976 76.0363 188.403 74.7879 188.368 73.474C188.368 73.749 188.525 72.2954 188.836 69.1089L193.159 52.4777C193.229 52.303 193.264 52.1328 193.264 51.9582C193.264 51.3689 192.984 50.9193 192.433 50.605C192.188 50.3955 191.912 50.2951 191.602 50.2951C190.976 50.2951 190.298 50.5919 189.571 51.1768C188.495 52.0411 187.939 52.4951 187.904 52.53C187.383 53.0146 186.967 53.5864 186.652 54.2455L182.745 69.1089H175.502L179.878 52.7396C179.913 52.565 179.931 52.3947 179.931 52.2201C179.931 51.6308 179.651 51.1812 179.099 50.8669C178.889 50.6574 178.614 50.557 178.268 50.557C177.677 50.557 176.999 50.8495 176.238 51.4387C174.986 52.4427 174.238 53.1019 173.997 53.4118C173.371 54.2106 172.921 55.3848 172.641 56.9476H172.588L169.359 69.1089H162.169L168.628 44.5767H175.818L175.297 46.5018C177.345 45.2533 179.327 44.6291 181.235 44.6291C181.931 44.6291 182.504 44.7164 182.955 44.891C184.552 45.5851 185.698 46.5891 186.394 47.9073C189.138 45.5502 191.864 44.3716 194.573 44.3716C195.234 44.3716 195.807 44.4589 196.293 44.6335C199.141 45.8819 200.563 47.9946 200.563 50.9717C200.563 51.5261 200.511 52.028 200.406 52.4777L196.03 69.1089C195.995 70.5974 196.218 71.6188 196.708 72.1732C197.019 72.553 197.54 72.7799 198.27 72.8498L198.266 72.8454Z" fill="#2D4875"/>
<path d="M204.987 69.0476C202.173 67.8341 200.769 65.0448 200.769 60.6796C200.769 58.257 201.289 55.8299 202.331 53.4029C203.477 50.7009 205.039 48.4921 207.022 46.7766C209 45.0611 210.982 44.2056 212.96 44.2056C214.938 44.2056 216.452 45.0044 217.598 46.5977L218.172 44.4675H225.204L220.67 61.9281C220.6 62.1725 220.565 62.3951 220.565 62.6047C220.565 63.2987 220.964 63.6436 221.764 63.6436C222.215 63.6436 222.718 63.5388 223.274 63.3336L221.97 67.9083C220.163 69.1218 218.496 69.7286 216.968 69.7286C215.231 69.7286 213.774 68.9472 212.592 67.3889C210.785 68.777 208.995 69.4667 207.227 69.4667C206.427 69.4667 205.683 69.327 204.987 69.052V69.0476ZM213.686 49.7668C212.855 49.7668 211.958 50.2862 211.004 51.3251C210.05 52.364 209.258 53.7347 208.632 55.4284C208.041 56.9867 207.748 58.4927 207.748 59.9506C207.748 62.2729 208.356 63.434 209.573 63.434C210.374 63.434 211.258 62.8797 212.229 61.7709C213.201 60.6622 214.001 59.2435 214.627 57.5105C215.253 55.9522 215.564 54.4811 215.564 53.093C215.564 50.8755 214.938 49.7668 213.686 49.7668V49.7668Z" fill="#2D4875"/>
<path d="M243.592 44.8823L241.977 51.6395C241.071 51.1201 240.222 50.8582 239.426 50.8582C237.583 50.8582 236.144 52.1241 235.102 54.6515L231.195 69.1001H224.005L230.621 44.568H237.811L237.395 46.1264C239.098 45.0525 240.642 44.5156 242.034 44.5156C242.66 44.5156 243.18 44.6378 243.596 44.8779L243.592 44.8823Z" fill="#2D4875"/>
<path d="M249.166 69.1002H241.977L246.978 49.8717H243.696L245.105 44.5201H248.387L251.201 33.8647H258.391L255.63 44.5201H260.163L258.706 49.8717H254.225L249.171 69.1002H249.166Z" fill="#2D4875"/>
<path d="M50.7216 17.7269V0H17.7751V17.7269H0V50.592H17.7751V68.3232H27.4459C24.2559 64.4383 21.5997 59.2743 20.6107 54.4901C18.7772 45.6201 19.9193 36.545 25.9625 31.6517C29.1132 29.1024 32.9071 28.7619 36.6704 29.862C38.7052 30.4512 42.2848 32.5509 43.0593 36.0517C43.0593 36.0517 44.4465 33.1489 46.2187 31.464C53.6097 24.5365 63.6044 28.0417 68.4923 37.0688V17.7269H50.7216V17.7269ZM33.8829 26.9111C30.9729 24.6718 26.6933 23.0742 24.1946 26.9722C24.9473 26.0337 25.0392 24.6281 25.6474 23.5456C26.4613 22.0876 27.5159 20.7432 28.6318 19.5428C30.3734 17.6701 32.3645 16.9018 34.9288 17.011C37.1737 17.107 40.1274 19.0539 41.6677 21.4372C42.5648 22.8384 42.9849 24.3837 42.4948 25.798C42.3154 26.1778 42.1141 26.4964 41.8953 26.7802C39.9349 29.3163 36.1891 28.6877 33.8829 26.9111ZM51.8812 22.4456C51.5749 22.4936 46.3544 22.7424 45.628 30.4032C45.628 30.4032 44.2408 31.9878 43.2081 33.8561C42.4948 32.3152 41.6021 31.6822 41.6021 31.6822C43.7463 26.9198 44.2189 23.0261 50.0346 19.438C50.0346 19.438 53.2553 19.6082 51.8856 22.4456H51.8812Z" fill="#2D4875"/>
<path d="M22.4619 41.3205C22.4619 41.3205 28.4351 30.8223 38.0228 32.5902C38.0228 32.5902 26.1333 26.5357 22.4619 41.3205Z" fill="#2D4875"/>
<path d="M40.9768 24.1306C40.7842 23.9036 40.5392 23.6766 40.2722 23.4191C40.0097 23.1659 39.6946 22.9258 39.3708 22.6595C39.0251 22.4194 38.6706 22.1357 38.2637 21.9175C37.8699 21.6861 37.4498 21.4373 36.999 21.2452C36.5658 21.0226 36.0888 20.8742 35.625 20.7039C35.1393 20.573 34.6667 20.4071 34.1722 20.3504C33.6864 20.25 33.1832 20.2325 32.7106 20.215C32.4787 20.202 32.238 20.2325 32.0061 20.2587C31.7742 20.2893 31.5554 20.2893 31.3453 20.3504C30.9077 20.4595 30.5051 20.5512 30.1638 20.7389C29.9931 20.8174 29.8312 20.8916 29.6693 20.9702C29.5293 21.075 29.3936 21.1754 29.2624 21.267C29.1398 21.3631 29.0217 21.446 28.921 21.5333C28.8248 21.6163 28.7548 21.7123 28.6847 21.7909C28.4178 22.1182 28.2646 22.3103 28.2646 22.3103C28.2646 22.3103 28.4834 22.1968 28.8554 21.9917C28.9473 21.9393 29.0436 21.8651 29.1617 21.8214C29.2667 21.7734 29.3936 21.7385 29.5293 21.6861C29.6518 21.6424 29.7875 21.5944 29.9275 21.5377C30.0763 21.5115 30.2382 21.4722 30.4001 21.4417C30.7239 21.35 31.0959 21.3587 31.4678 21.3151C31.656 21.2845 31.8573 21.3282 32.0542 21.3282C32.2555 21.3413 32.4568 21.3194 32.6625 21.3674C32.8638 21.3893 33.0782 21.4198 33.2882 21.4504C33.5027 21.4809 33.7171 21.542 33.9315 21.5813C34.3603 21.6643 34.7892 21.8171 35.2268 21.9262C35.6556 22.0921 36.0932 22.2186 36.5089 22.402C36.9246 22.5766 37.336 22.7425 37.7211 22.9302C38.1149 23.1048 38.4781 23.3056 38.8501 23.4758C39.187 23.681 39.5327 23.8381 39.839 24.0258C40.1235 24.2135 40.421 24.3576 40.6486 24.5191C40.8893 24.685 41.1212 24.7984 41.2831 24.9294C41.62 25.1651 41.8345 25.3004 41.8345 25.3004C41.8345 25.3004 41.7076 25.0953 41.4669 24.7373C41.3487 24.5627 41.1781 24.3663 40.9855 24.1349L40.9768 24.1306Z" fill="#2D4875"/>
<path d="M266.998 21.6641C267.891 21.6641 268.722 21.8867 269.497 22.3363C270.271 22.7815 270.88 23.3927 271.33 24.1609C271.777 24.9292 272.004 25.7586 272.004 26.6491C272.004 27.5395 271.781 28.3733 271.335 29.1416C270.888 29.9098 270.28 30.5122 269.506 30.9575C268.731 31.4027 267.9 31.6253 267.003 31.6253C266.106 31.6253 265.265 31.4027 264.491 30.9618C263.716 30.5209 263.108 29.9142 262.662 29.1459C262.215 28.3777 261.992 27.5439 261.992 26.6534C261.992 25.7629 262.215 24.9292 262.666 24.1609C263.112 23.3927 263.725 22.7859 264.5 22.3407C265.274 21.8954 266.106 21.6728 267.003 21.6728L266.998 21.6641ZM266.998 22.4891C265.852 22.4891 264.867 22.895 264.053 23.707C263.239 24.5189 262.832 25.4967 262.832 26.6447C262.832 27.7927 263.239 28.7749 264.053 29.5824C264.867 30.39 265.847 30.7959 267.003 30.7959C268.158 30.7959 269.129 30.39 269.943 29.5781C270.757 28.7662 271.16 27.7884 271.16 26.6447C271.16 25.501 270.753 24.5189 269.939 23.707C269.125 22.895 268.145 22.4891 267.003 22.4891H266.998ZM265.865 29.3205H264.998V23.9601H266.858C267.515 23.9601 267.983 24.0125 268.254 24.1173C268.525 24.222 268.744 24.3923 268.906 24.6367C269.068 24.8768 269.151 25.1344 269.151 25.4094C269.151 25.8197 269.007 26.1645 268.722 26.4483C268.434 26.732 268.066 26.8891 267.615 26.9241C267.817 27.007 268.009 27.1467 268.189 27.3388C268.368 27.5308 268.595 27.8451 268.867 28.2816L269.514 29.3249H268.455L267.987 28.4868C267.646 27.8844 267.379 27.4915 267.178 27.3126C266.981 27.1336 266.714 27.0463 266.381 27.0463H265.865V29.3249V29.3205ZM265.865 24.6891V26.2998H266.924C267.375 26.2998 267.703 26.2344 267.913 26.1034C268.123 25.9725 268.224 25.7673 268.224 25.4836C268.224 25.1998 268.123 24.9816 267.922 24.8637C267.72 24.7459 267.366 24.6847 266.858 24.6847H265.865V24.6891Z" fill="#2D4875"/>
</svg>
