<svg width="1336" height="1500" viewBox="0 0 1336 1500" fill="none" xmlns="http://www.w3.org/2000/svg">
<g filter="url(#filter0_d_2335_217362)">
<path d="M4 10C4 4.47717 8.47715 0 14 0H1322C1327.52 0 1332 4.47715 1332 10V1482C1332 1487.52 1327.52 1492 1322 1492H14C8.47712 1492 4 1487.52 4 1482V10Z" fill="#FAFAFA"/>
<path d="M14 0.5H1322C1327.25 0.5 1331.5 4.75329 1331.5 10V1482C1331.5 1487.25 1327.25 1491.5 1322 1491.5H14C8.75326 1491.5 4.5 1487.25 4.5 1482V10C4.5 4.75331 8.7533 0.5 14 0.5Z" stroke="#F3F7F5"/>
</g>
<defs>
<filter id="filter0_d_2335_217362" x="0" y="0" width="1336" height="1500" filterUnits="userSpaceOnUse" color-interpolation-filters="sRGB">
<feFlood flood-opacity="0" result="BackgroundImageFix"/>
<feColorMatrix in="SourceAlpha" type="matrix" values="0 0 0 0 0 0 0 0 0 0 0 0 0 0 0 0 0 0 127 0" result="hardAlpha"/>
<feOffset dy="4"/>
<feGaussianBlur stdDeviation="2"/>
<feComposite in2="hardAlpha" operator="out"/>
<feColorMatrix type="matrix" values="0 0 0 0 0.752941 0 0 0 0 0.784314 0 0 0 0 0.839216 0 0 0 0.25 0"/>
<feBlend mode="normal" in2="BackgroundImageFix" result="effect1_dropShadow_2335_217362"/>
<feBlend mode="normal" in="SourceGraphic" in2="effect1_dropShadow_2335_217362" result="shape"/>
</filter>
</defs>
</svg>
