<svg width="296" height="238" viewBox="0 0 296 238" fill="none" xmlns="http://www.w3.org/2000/svg">
<rect opacity="0.2" x="63" y="73.7671" width="415.441" height="23.4189" rx="11.7095" transform="rotate(-45.9849 63 73.7671)" fill="#C0C8D6"/>
<rect opacity="0.2" x="27" y="179.683" width="375" height="103" rx="51.5" transform="rotate(-45.9849 27 179.683)" fill="#A9D6D0"/>
<path d="M0 97.2595V91.5895C0.24 90.7095 0.909989 90.1895 2.01999 90.2095C4.26999 90.2495 6.53 90.2195 8.78 90.2195C9.08 90.2195 9.23001 90.0695 9.23001 89.7695C9.23001 87.4295 9.23001 85.0895 9.23001 82.7495C9.23001 82.2795 9.36999 81.8695 9.67999 81.5295C9.92999 81.2495 10.26 81.1095 10.6 80.9995H16.27C17.31 81.2995 17.67 82.0395 17.65 83.0095C17.62 84.2395 17.65 85.4695 17.65 86.7095C17.65 87.7795 17.65 88.8395 17.65 89.9095C17.65 90.1495 17.74 90.2495 17.97 90.2295C18.06 90.2295 18.14 90.2295 18.23 90.2295C20.53 90.2295 22.83 90.2295 25.12 90.2295C25.76 90.2295 26.27 90.4795 26.63 91.0195C26.75 91.1995 26.79 91.3995 26.88 91.5995V97.2695C26.64 98.1595 25.98 98.6895 24.84 98.6495C23.61 98.6095 22.38 98.6495 21.14 98.6495C20.08 98.6495 19.03 98.6495 17.97 98.6495C17.73 98.6495 17.63 98.7395 17.65 98.9695C17.65 99.0595 17.65 99.1395 17.65 99.2295C17.65 101.53 17.65 103.83 17.65 106.12C17.65 106.77 17.39 107.28 16.84 107.64C16.67 107.75 16.47 107.79 16.29 107.87H10.62C9.59 107.56 9.22999 106.83 9.23999 105.83C9.26999 103.59 9.25 101.34 9.25 99.0895C9.25 98.7895 9.09999 98.6395 8.79999 98.6395C6.45999 98.6395 4.12 98.6395 1.78 98.6395C1.31 98.6395 0.899998 98.4995 0.559998 98.1895C0.279998 97.9395 0.139999 97.6095 0.0299988 97.2695L0 97.2595Z" fill="#CBE6E3"/>
<path d="M134 205.26V199.59C134.24 198.71 134.91 198.19 136.02 198.21C138.27 198.25 140.53 198.22 142.78 198.22C143.08 198.22 143.23 198.07 143.23 197.77C143.23 195.43 143.23 193.09 143.23 190.75C143.23 190.28 143.37 189.87 143.68 189.53C143.93 189.25 144.26 189.11 144.6 189H150.27C151.31 189.3 151.67 190.04 151.65 191.01C151.62 192.24 151.65 193.47 151.65 194.71C151.65 195.78 151.65 196.84 151.65 197.91C151.65 198.15 151.74 198.25 151.97 198.23C152.06 198.23 152.14 198.23 152.23 198.23C154.53 198.23 156.83 198.23 159.12 198.23C159.76 198.23 160.27 198.48 160.63 199.02C160.75 199.2 160.79 199.4 160.88 199.6V205.27C160.64 206.16 159.98 206.69 158.84 206.65C157.61 206.61 156.38 206.65 155.14 206.65C154.08 206.65 153.03 206.65 151.97 206.65C151.73 206.65 151.63 206.74 151.65 206.97C151.65 207.06 151.65 207.14 151.65 207.23C151.65 209.53 151.65 211.83 151.65 214.12C151.65 214.77 151.39 215.28 150.84 215.64C150.67 215.75 150.47 215.79 150.29 215.87H144.62C143.59 215.56 143.23 214.83 143.24 213.83C143.27 211.59 143.25 209.34 143.25 207.09C143.25 206.79 143.1 206.64 142.8 206.64C140.46 206.64 138.12 206.64 135.78 206.64C135.31 206.64 134.9 206.5 134.56 206.19C134.28 205.94 134.14 205.61 134.03 205.27L134 205.26Z" fill="#C0C8D6"/>
</svg>
