<svg width="14" height="15" viewBox="0 0 14 15" fill="none" xmlns="http://www.w3.org/2000/svg">
<path d="M0.407715 8.53V5.56C0.522352 5.1 0.856714 4.83 1.42035 4.84C2.54761 4.86 3.67486 4.84 4.80213 4.84C4.95498 4.84 5.03141 4.76001 5.03141 4.60001C5.03141 3.37001 5.03141 2.15 5.03141 0.919998C5.03141 0.679998 5.09828 0.459999 5.26068 0.279999C5.38487 0.139999 5.54727 0.06 5.71923 0H8.55648C9.07235 0.16 9.25386 0.540003 9.24431 1.05C9.2252 1.69 9.24431 2.34 9.24431 2.98C9.24431 3.54 9.24431 4.09999 9.24431 4.64999C9.24431 4.76999 9.28252 4.82999 9.40671 4.81999C9.45447 4.81999 9.49269 4.81999 9.54046 4.81999C10.6868 4.81999 11.8427 4.81999 12.9891 4.81999C13.3139 4.81999 13.5623 4.95 13.7438 5.23C13.8011 5.32 13.8298 5.43 13.868 5.53V8.5C13.7534 8.97 13.419 9.24 12.8458 9.22C12.2344 9.2 11.6135 9.22 11.0021 9.22C10.4767 9.22 9.94168 9.22 9.41626 9.22C9.30163 9.22 9.24431 9.26 9.25386 9.39C9.25386 9.44 9.25386 9.48 9.25386 9.53C9.25386 10.73 9.25386 11.94 9.25386 13.14C9.25386 13.48 9.12012 13.75 8.84308 13.94C8.7571 14 8.66157 14.02 8.56604 14.06H5.72878C5.21291 13.9 5.0314 13.52 5.04095 12.99C5.06006 11.81 5.04095 10.64 5.04095 9.46001C5.04095 9.30001 4.96453 9.22 4.81168 9.22C3.63665 9.22 2.47118 9.22 1.29615 9.22C1.06688 9.22 0.85671 9.15 0.684755 8.98C0.551012 8.85 0.474588 8.68 0.41727 8.5L0.407715 8.53Z" fill="#86C5BD"/>
</svg>
