<svg width="28" height="28" viewBox="0 0 28 28" fill="none" xmlns="http://www.w3.org/2000/svg">
<path d="M0.469971 16.4299V10.7599C0.709971 9.87992 1.37996 9.35992 2.48996 9.37992C4.73996 9.41992 6.99997 9.38992 9.24997 9.38992C9.54997 9.38992 9.69998 9.23992 9.69998 8.93992C9.69998 6.59992 9.69998 4.25992 9.69998 1.91992C9.69998 1.44992 9.83996 1.03992 10.15 0.699921C10.4 0.419921 10.73 0.279922 11.07 0.169922H16.74C17.78 0.469922 18.14 1.20992 18.12 2.17992C18.09 3.40992 18.12 4.63992 18.12 5.87992C18.12 6.94992 18.12 8.00992 18.12 9.07992C18.12 9.31992 18.21 9.41992 18.44 9.39992C18.53 9.39992 18.61 9.39992 18.7 9.39992C21 9.39992 23.3 9.39992 25.59 9.39992C26.23 9.39992 26.74 9.64992 27.1 10.1899C27.22 10.3699 27.26 10.5699 27.35 10.7699V16.4399C27.11 17.3299 26.45 17.8599 25.31 17.8199C24.08 17.7799 22.85 17.8199 21.61 17.8199C20.55 17.8199 19.5 17.8199 18.44 17.8199C18.2 17.8199 18.1 17.9099 18.12 18.1399C18.12 18.2299 18.12 18.3099 18.12 18.3999C18.12 20.6999 18.12 22.9999 18.12 25.2899C18.12 25.9399 17.86 26.4499 17.31 26.8099C17.14 26.9199 16.94 26.9599 16.76 27.0399H11.09C10.06 26.7299 9.69996 25.9999 9.70996 24.9999C9.73996 22.7599 9.71997 20.5099 9.71997 18.2599C9.71997 17.9599 9.56996 17.8099 9.26996 17.8099C6.92996 17.8099 4.58997 17.8099 2.24997 17.8099C1.77997 17.8099 1.36997 17.6699 1.02997 17.3599C0.749968 17.1099 0.609969 16.7799 0.499969 16.4399L0.469971 16.4299Z" fill="#86C5BD"/>
</svg>
