<svg width="15" height="15" viewBox="0 0 15 15" fill="none" xmlns="http://www.w3.org/2000/svg">
<path d="M0.720703 8.53V5.56C0.83534 5.1 1.1697 4.83 1.73333 4.84C2.86059 4.86 3.98785 4.84 5.11511 4.84C5.26796 4.84 5.34439 4.76 5.34439 4.6C5.34439 3.37 5.34439 2.15 5.34439 0.92C5.34439 0.68 5.41126 0.46 5.57367 0.28C5.69786 0.14 5.86025 0.06 6.03221 0H8.86947C9.38534 0.16 9.56685 0.54 9.5573 1.05C9.53819 1.69 9.5573 2.34 9.5573 2.98C9.5573 3.54 9.5573 4.1 9.5573 4.65C9.5573 4.77 9.59551 4.83 9.7197 4.82C9.76746 4.82 9.80567 4.82 9.85344 4.82C10.9998 4.82 12.1557 4.82 13.3021 4.82C13.6269 4.82 13.8753 4.95 14.0568 5.23C14.1141 5.32 14.1428 5.43 14.181 5.53V8.5C14.0663 8.97 13.732 9.24 13.1588 9.22C12.5474 9.2 11.9265 9.22 11.3151 9.22C10.7896 9.22 10.2547 9.22 9.72925 9.22C9.61461 9.22 9.5573 9.26 9.56685 9.39C9.56685 9.44 9.56685 9.48 9.56685 9.53C9.56685 10.73 9.56685 11.94 9.56685 13.14C9.56685 13.48 9.43311 13.75 9.15607 13.94C9.07009 14 8.97456 14.02 8.87903 14.06H6.04176C5.5259 13.9 5.34439 13.52 5.35394 12.99C5.37305 11.81 5.35394 10.64 5.35394 9.46C5.35394 9.3 5.27752 9.22 5.12467 9.22C3.94964 9.22 2.78417 9.22 1.60914 9.22C1.37987 9.22 1.1697 9.15 0.997743 8.98C0.864 8.85 0.787577 8.68 0.730258 8.5L0.720703 8.53Z" fill="#86C5BD"/>
</svg>
