<svg width="78" height="60" viewBox="0 0 78 60" fill="none" xmlns="http://www.w3.org/2000/svg">
<mask id="path-1-inside-1_2335_221257" fill="white">
<path d="M76.8474 9.79156L68.2853 1.37937C67.2801 0.391773 65.6287 0.391773 64.6235 1.37937L28.9572 36.4213L13.7895 21.5192C12.7664 20.5316 11.133 20.5316 10.1278 21.5192L1.5657 29.9314C0.542554 30.9367 0.542554 32.5415 1.5657 33.5291L27.1263 58.6422C27.6289 59.136 28.293 59.3829 28.9572 59.3829C29.6213 59.3829 30.2855 59.136 30.7881 58.6422L76.8474 13.3892C77.332 12.9131 77.6013 12.2605 77.6013 11.5904C77.6013 10.9202 77.332 10.2677 76.8474 9.79156"/>
</mask>
<path d="M76.8474 9.79156L68.2853 1.37937C67.2801 0.391773 65.6287 0.391773 64.6235 1.37937L28.9572 36.4213L13.7895 21.5192C12.7664 20.5316 11.133 20.5316 10.1278 21.5192L1.5657 29.9314C0.542554 30.9367 0.542554 32.5415 1.5657 33.5291L27.1263 58.6422C27.6289 59.136 28.293 59.3829 28.9572 59.3829C29.6213 59.3829 30.2855 59.136 30.7881 58.6422L76.8474 13.3892C77.332 12.9131 77.6013 12.2605 77.6013 11.5904C77.6013 10.9202 77.332 10.2677 76.8474 9.79156" fill="#A7CC83"/>
<path d="M68.2853 1.37937L67.5845 2.09269L67.5845 2.09269L68.2853 1.37937ZM64.6235 1.37937L65.3244 2.09269L65.3244 2.09269L64.6235 1.37937ZM28.9572 36.4213L28.2563 37.1347L28.9572 37.8232L29.658 37.1347L28.9572 36.4213ZM13.7895 21.5192L14.4904 20.8059L14.484 20.7997L13.7895 21.5192ZM10.1278 21.5192L10.8286 22.2326L10.8286 22.2326L10.1278 21.5192ZM1.5657 29.9314L0.864861 29.2181L0.864861 29.2181L1.5657 29.9314ZM1.5657 33.5291L2.26656 32.8157L2.26019 32.8096L1.5657 33.5291ZM27.1263 58.6422L27.8271 57.9289L27.8271 57.9289L27.1263 58.6422ZM30.7881 58.6422L30.0872 57.9289L30.0872 57.9289L30.7881 58.6422ZM76.8474 13.3892L77.5482 14.1025L77.5482 14.1025L76.8474 13.3892ZM77.5482 9.07823L68.9861 0.666044L67.5845 2.09269L76.1466 10.5049L77.5482 9.07823ZM68.9861 0.666045C67.5919 -0.703786 65.317 -0.703786 63.9227 0.666045L65.3244 2.09269C65.9405 1.48733 66.9683 1.48733 67.5845 2.09269L68.9861 0.666045ZM63.9227 0.666044L28.2563 35.708L29.658 37.1347L65.3244 2.09269L63.9227 0.666044ZM29.658 35.708L14.4904 20.8059L13.0887 22.2326L28.2563 37.1347L29.658 35.708ZM14.484 20.7997C13.0769 19.4415 10.8246 19.4327 9.42695 20.8059L10.8286 22.2326C11.4414 21.6306 12.4559 21.6218 13.095 22.2387L14.484 20.7997ZM9.42695 20.8059L0.864861 29.2181L2.26653 30.6448L10.8286 22.2326L9.42695 20.8059ZM0.864861 29.2181C-0.5536 30.6117 -0.562847 32.8644 0.871199 34.2486L2.26019 32.8096C1.64796 32.2186 1.63871 31.2616 2.26653 30.6448L0.864861 29.2181ZM0.864861 34.2424L26.4255 59.3555L27.8271 57.9289L2.26653 32.8158L0.864861 34.2424ZM26.4255 59.3555C27.1266 60.0444 28.0475 60.3829 28.9572 60.3829V58.3829C28.5386 58.3829 28.1312 58.2276 27.8271 57.9289L26.4255 59.3555ZM28.9572 60.3829C29.8668 60.3829 30.7878 60.0444 31.4889 59.3555L30.0872 57.9289C29.7832 58.2276 29.3758 58.3829 28.9572 58.3829V60.3829ZM31.4889 59.3555L77.5482 14.1025L76.1466 12.6759L30.0872 57.9289L31.4889 59.3555ZM77.5482 14.1025C78.226 13.4366 78.6013 12.5263 78.6013 11.5904H76.6013C76.6013 11.9948 76.4381 12.3895 76.1466 12.6759L77.5482 14.1025ZM78.6013 11.5904C78.6013 10.6544 78.226 9.74415 77.5482 9.07823L76.1466 10.5049C76.4381 10.7913 76.6013 11.186 76.6013 11.5904H78.6013Z" fill="white" mask="url(#path-1-inside-1_2335_221257)"/>
</svg>
