<svg width="25" height="24" viewBox="0 0 25 24" fill="none" xmlns="http://www.w3.org/2000/svg">
<path d="M9.24414 14L15.2441 8M9.74417 8.5H9.75417M14.7442 13.5H14.7542M19.2441 21V5C19.2441 3.89543 18.3487 3 17.2441 3H7.24414C6.13957 3 5.24414 3.89543 5.24414 5V21L8.74414 19L12.2441 21L15.7441 19L19.2441 21ZM10.2441 8.5C10.2441 8.77614 10.0203 9 9.74414 9C9.468 9 9.24414 8.77614 9.24414 8.5C9.24414 8.22386 9.468 8 9.74414 8C10.0203 8 10.2441 8.22386 10.2441 8.5ZM15.2441 13.5C15.2441 13.7761 15.0203 14 14.7441 14C14.468 14 14.2441 13.7761 14.2441 13.5C14.2441 13.2239 14.468 13 14.7441 13C15.0203 13 15.2441 13.2239 15.2441 13.5Z" stroke="#112145" stroke-width="2" stroke-linecap="round" stroke-linejoin="round"/>
</svg>
