<svg width="24" height="25" viewBox="0 0 24 25" fill="none" xmlns="http://www.w3.org/2000/svg">
<g clip-path="url(#clip0_2339_36457)">
<path d="M22.9966 12.5367C22.9812 12.4462 22.9664 12.3552 22.952 12.2646C22.9199 12.0663 22.8873 11.8616 22.8455 11.6589C22.542 10.1794 21.9532 8.79994 21.4737 7.7638C21.056 6.86056 20.3837 6.16193 19.4765 5.68768C18.5309 5.19369 17.4592 4.96354 16.1036 4.96354C16.1003 4.96354 16.0969 4.96354 16.0935 4.96354C16.0312 4.96354 15.9948 4.95536 15.9809 4.95054C14.9408 3.98951 13.6658 3.51526 12.0829 3.49985C10.4295 3.48493 9.10226 3.95822 8.02767 4.94861C8.01569 4.95439 7.98164 4.96306 7.94328 4.96354C7.1377 4.95584 6.42323 5.03865 5.75863 5.21632C4.1772 5.63953 3.1309 6.45997 2.56076 7.72384C2.14023 8.65598 1.75662 9.63915 1.42144 10.6454C1.03879 11.7933 0.92131 12.7577 1.0503 13.6807C1.15483 14.4284 1.44733 14.985 1.94459 15.3827C2.54829 15.8661 3.27955 15.997 4.18007 15.7837C4.27693 15.7606 4.36996 15.7337 4.46346 15.7038C4.34598 16.4366 4.31529 17.1044 4.36852 17.7409C4.50326 19.3419 5.22013 20.5523 6.49851 21.3385C7.33814 21.8547 8.30244 22.1657 9.62541 22.3477C10.3643 22.4493 11.1301 22.4999 11.9395 22.4999C12.5039 22.4999 13.0894 22.4753 13.7008 22.4262C14.725 22.3439 15.6107 22.1609 16.4076 21.8667C17.6117 21.4223 18.4604 20.7593 19.0018 19.8397C19.5043 18.9865 19.7148 17.9851 19.6458 16.7775C19.6266 16.4458 19.5897 16.1112 19.5542 15.7871C19.5513 15.7597 19.5479 15.7322 19.5451 15.7048C19.6367 15.7337 19.7297 15.7616 19.8246 15.7852C20.5755 15.972 21.2675 15.8916 21.8261 15.5526C22.3564 15.2305 22.7252 14.698 22.8921 14.0119C22.9204 13.8949 22.9429 13.7779 22.9645 13.6643C22.9741 13.6133 22.9836 13.5622 22.9942 13.5112L22.999 13.4876V12.5569L22.9956 12.5367H22.9966ZM20.3411 14.3514C20.1574 14.3186 19.9603 14.257 19.7551 14.1689C19.3475 13.9936 19.1447 13.7312 19.0766 13.2911C18.844 11.7865 18.5745 10.1856 18.0734 8.60928C17.8179 7.80569 17.5402 7.14463 17.2084 6.5553C18.8738 6.74452 19.8428 7.70073 20.2025 8.58279C20.2466 8.69113 20.2912 8.79946 20.3358 8.90779C20.7376 9.88711 21.1534 10.9001 21.3677 11.9517C21.4598 12.4038 21.5509 12.9989 21.4367 13.593C21.3221 14.1877 20.9333 14.4563 20.3411 14.3504V14.3514ZM12.7456 19.5412C12.7365 19.3207 12.7557 19.2605 12.9628 19.1743C13.8547 18.8012 14.4397 17.7713 14.2661 16.8786C14.1501 16.2806 13.6557 15.856 13.0645 15.8463C12.244 15.8329 11.567 15.8329 10.9335 15.8473C10.5868 15.855 10.2684 16.0009 10.0383 16.2575C9.80283 16.5199 9.6887 16.8627 9.71795 17.2224C9.79803 18.2075 10.3197 18.9119 11.2275 19.259C11.2404 19.2639 11.25 19.2682 11.2567 19.2716C11.2572 19.2788 11.2577 19.2884 11.2572 19.3009C11.2519 19.6895 11.2529 20.0843 11.2534 20.4656C11.2534 20.6332 11.2538 20.8007 11.2534 20.9678C11.204 20.9649 11.1551 20.962 11.1057 20.9591C10.8213 20.9423 10.5523 20.9264 10.2814 20.8999C9.17467 20.7916 8.36189 20.5908 7.64598 20.2494C6.51817 19.7116 5.93173 18.8113 5.85261 17.4978C5.79938 16.61 5.97105 15.7443 6.13744 14.9075C6.26451 14.2681 6.38295 13.6166 6.49707 12.9864C6.61311 12.346 6.73347 11.6845 6.86246 11.0364C7.09167 9.88759 7.41582 8.55102 8.0857 7.34588C8.78914 6.08008 9.72131 5.35113 10.9354 5.11761C11.3411 5.03961 11.7266 5.00061 12.0939 5.00061C13.0721 5.00061 13.919 5.27794 14.6617 5.83838C15.286 6.30927 15.7766 6.96937 16.2053 7.91643C16.726 9.0662 17.0041 10.2959 17.2271 11.4534C17.5441 13.0981 17.8131 14.5396 18.0495 15.8598C18.2058 16.7332 18.2082 17.4906 18.0567 18.1743C17.8212 19.2359 17.1442 19.9678 15.9857 20.4117C15.0333 20.7767 14.0197 20.8859 13.2424 20.9404C13.086 20.9514 12.9268 20.9577 12.7585 20.9644H12.7523C12.7528 20.8802 12.7537 20.7964 12.7542 20.7131C12.7576 20.3101 12.7609 19.9297 12.7451 19.5402L12.7456 19.5412ZM12.7394 17.3683C12.7149 17.454 12.6693 17.5382 12.6046 17.6153C12.4617 17.7857 12.2479 17.8926 12.0321 17.9022C11.8225 17.9104 11.6139 17.8291 11.4605 17.6769C11.3704 17.5878 11.3061 17.4824 11.2706 17.3683H12.7394ZM6.79677 6.5553C6.64524 6.84948 6.50187 7.12729 6.37624 7.4157C5.7989 8.74216 5.49585 10.1187 5.25466 11.4086C5.20239 11.6883 5.15252 11.9724 5.10457 12.2473C5.02785 12.685 4.94873 13.1376 4.8581 13.5776C4.83604 13.6845 4.75645 13.8169 4.66438 13.8993C4.33831 14.192 3.93073 14.3514 3.45409 14.3721C2.93478 14.3942 2.59001 14.0307 2.53391 13.398C2.4826 12.8164 2.55213 12.2064 2.7588 11.4197C3.01582 10.4432 3.39751 9.43645 3.92593 8.34109C4.32297 7.51873 5.01538 6.99633 6.10531 6.69782C6.32589 6.63763 6.55509 6.59574 6.79677 6.55337C6.79677 6.55337 6.79677 6.55386 6.79677 6.55434V6.5553Z" fill="#00AFA1"/>
<path d="M9.4479 9.6748H9.4431C8.49127 9.6748 7.71255 10.4206 7.66939 11.3744C7.65692 11.6498 7.77009 11.9069 7.97244 12.061C8.09951 12.1583 8.25056 12.2078 8.40688 12.2078C8.48648 12.2078 8.56704 12.1948 8.64711 12.1688C8.96311 12.0658 9.14868 11.814 9.17026 11.4606C9.17841 11.3296 9.22876 11.2531 9.33905 11.204C9.41721 11.1693 9.49345 11.1707 9.56058 11.2088C9.6421 11.255 9.69677 11.3479 9.71115 11.463C9.77157 11.9493 10.1183 12.2517 10.5541 12.1992C10.9962 12.1453 11.2581 11.7793 11.2063 11.2877C11.108 10.3551 10.3686 9.67672 9.44838 9.67432L9.4479 9.6748Z" fill="#00AFA1"/>
<path d="M14.5636 11.1804H14.5655C14.7185 11.1813 14.8105 11.2906 14.8384 11.5054C14.8921 11.9204 15.2009 12.2064 15.584 12.2064C15.6041 12.2064 15.6238 12.2054 15.6444 12.204C16.0678 12.1713 16.3584 11.8188 16.3349 11.3657C16.2865 10.4201 15.5121 9.67769 14.5727 9.6748H14.5674C13.6266 9.6748 12.8642 10.3917 12.7932 11.3446C12.7597 11.7952 13.0407 12.1554 13.4622 12.2006C13.888 12.2464 14.2284 11.9589 14.2912 11.5015C14.3205 11.2882 14.4121 11.1804 14.5636 11.1804Z" fill="#00AFA1"/>
</g>
<defs>
<clipPath id="clip0_2339_36457">
<rect width="22" height="19" fill="white" transform="translate(1 3.5)"/>
</clipPath>
</defs>
</svg>
