<svg width="24" height="25" viewBox="0 0 24 25" fill="none" xmlns="http://www.w3.org/2000/svg">
<g clip-path="url(#clip0_2337_272371)">
<path d="M13.1567 2.5C13.6115 2.59137 14.0729 2.65553 14.5085 2.82184C16.5967 3.62004 17.8794 5.04601 18.1934 7.1434C18.492 9.13606 17.7474 10.7899 16.1025 12.0825C15.9545 12.1985 15.9501 12.24 16.1337 12.3119C18.0088 13.0434 19.4833 14.2235 20.5627 15.8317C21.3068 16.9399 21.7666 18.1472 21.9238 19.451C21.9841 19.9525 22.0356 20.453 21.9677 20.9607C21.7841 22.3261 20.4246 23.4918 18.9534 23.4944C14.652 23.5021 10.3501 23.5021 6.04876 23.4944C4.57807 23.4918 3.20492 22.3276 3.03999 20.9601C2.92218 19.9823 3.07396 19.0234 3.37314 18.0897C4.23451 15.399 6.04931 13.4869 8.78684 12.3422C8.82684 12.3253 8.86574 12.3052 8.90684 12.2929C9.05972 12.2477 9.04766 12.1954 8.93205 12.1097C7.96492 11.3926 7.30246 10.4809 6.96711 9.36808C6.53972 7.94878 6.68876 6.57722 7.4515 5.28881C8.29588 3.8613 9.58848 2.96968 11.2888 2.60369C11.4729 2.56416 11.6592 2.53439 11.8438 2.5C12.2811 2.5 12.7189 2.5 13.1562 2.5H13.1567ZM12.4931 21.8389C14.5852 21.8389 16.6778 21.8425 18.7699 21.8374C19.652 21.8353 20.252 21.2548 20.2263 20.4278C20.2126 19.9782 20.1731 19.5285 20.0718 19.0871C19.7222 17.56 18.9578 16.249 17.7151 15.2008C15.7803 13.5695 13.5118 12.9879 10.9677 13.4366C9.3315 13.725 7.94465 14.4812 6.81588 15.6371C5.48985 16.9953 4.83177 18.603 4.77205 20.434C4.76437 20.6614 4.79889 20.8867 4.91287 21.09C5.19616 21.5966 5.64602 21.8415 6.26026 21.8405C8.33807 21.8369 10.4153 21.8389 12.4931 21.8389ZM16.4833 7.89078C16.4926 5.82316 14.7381 4.16056 12.5326 4.14618C10.3041 4.13181 8.52547 5.7821 8.5178 7.87127C8.51013 9.93837 10.2904 11.6215 12.4904 11.6261C14.691 11.6307 16.4745 9.96249 16.4833 7.89026V7.89078Z" fill="#00AFA1"/>
</g>
<defs>
<clipPath id="clip0_2337_272371">
<rect width="19" height="21" fill="white" transform="translate(3 2.5)"/>
</clipPath>
</defs>
</svg>
