<svg width="24" height="24" viewBox="0 0 24 24" fill="none" xmlns="http://www.w3.org/2000/svg">
<g clip-path="url(#clip0_2335_219904)">
<path d="M22.9967 12.0367C22.9813 11.9462 22.9664 11.8552 22.9521 11.7646C22.9199 11.5663 22.8873 11.3616 22.8456 11.1589C22.5421 9.67937 21.9532 8.29994 21.4737 7.2638C21.0561 6.36056 20.3838 5.66193 19.4766 5.18768C18.531 4.69369 17.4593 4.46354 16.1037 4.46354C16.1003 4.46354 16.097 4.46354 16.0936 4.46354C16.0313 4.46354 15.9948 4.45536 15.9809 4.45054C14.9409 3.48951 13.6658 3.01526 12.083 2.99985C10.4296 2.98493 9.10232 3.45822 8.02774 4.44861C8.01575 4.45439 7.9817 4.46306 7.94334 4.46354C7.13776 4.45584 6.42329 4.53865 5.75869 4.71632C4.17726 5.13953 3.13096 5.95997 2.56082 7.22384C2.14029 8.15598 1.75668 9.13915 1.4215 10.1454C1.03885 11.2933 0.921371 12.2577 1.05036 13.1807C1.15489 13.9284 1.4474 14.485 1.94465 14.8827C2.54836 15.3661 3.27961 15.497 4.18013 15.2837C4.27699 15.2606 4.37002 15.2337 4.46352 15.2038C4.34604 15.9366 4.31536 16.6044 4.36858 17.2409C4.50332 18.8419 5.22019 20.0523 6.49857 20.8385C7.3382 21.3547 8.3025 21.6657 9.62547 21.8477C10.3644 21.9493 11.1302 21.9999 11.9396 21.9999C12.504 21.9999 13.0895 21.9753 13.7008 21.9262C14.7251 21.8439 15.6107 21.6609 16.4077 21.3667C17.6117 20.9223 18.4605 20.2593 19.0018 19.3397C19.5044 18.4865 19.7149 17.4851 19.6458 16.2775C19.6266 15.9458 19.5897 15.6112 19.5542 15.2871C19.5514 15.2597 19.548 15.2322 19.5451 15.2048C19.6367 15.2337 19.7297 15.2616 19.8247 15.2852C20.5756 15.472 21.2675 15.3916 21.8262 15.0526C22.3565 14.7305 22.7253 14.198 22.8921 13.5119C22.9204 13.3949 22.9429 13.2779 22.9645 13.1643C22.9741 13.1133 22.9837 13.0622 22.9943 13.0112L22.9991 12.9876V12.0569L22.9957 12.0367H22.9967ZM20.3411 13.8514C20.1575 13.8186 19.9604 13.757 19.7552 13.6689C19.3476 13.4936 19.1447 13.2312 19.0766 12.7911C18.8441 11.2865 18.5746 9.68563 18.0735 8.10928C17.8179 7.30569 17.5403 6.64463 17.2085 6.0553C18.8738 6.24452 19.8429 7.20073 20.2025 8.08279C20.2467 8.19113 20.2912 8.29946 20.3358 8.40779C20.7377 9.38711 21.1534 10.4001 21.3678 11.4517C21.4598 11.9038 21.5509 12.4989 21.4368 13.093C21.3222 13.6877 20.9333 13.9563 20.3411 13.8504V13.8514ZM12.7457 19.0412C12.7365 18.8207 12.7557 18.7605 12.9629 18.6743C13.8548 18.3012 14.4398 17.2713 14.2662 16.3786C14.1501 15.7806 13.6558 15.356 13.0645 15.3463C12.2441 15.3329 11.567 15.3329 10.9336 15.3473C10.5869 15.355 10.2685 15.5009 10.0383 15.7575C9.80289 16.0199 9.68876 16.3627 9.71801 16.7224C9.79809 17.7075 10.3198 18.4119 11.2275 18.759C11.2405 18.7639 11.2501 18.7682 11.2568 18.7716C11.2572 18.7788 11.2577 18.7884 11.2572 18.8009C11.252 19.1895 11.2529 19.5843 11.2534 19.9656C11.2534 20.1332 11.2539 20.3007 11.2534 20.4678C11.204 20.4649 11.1551 20.462 11.1057 20.4591C10.8214 20.4423 10.5524 20.4264 10.2814 20.3999C9.17473 20.2916 8.36196 20.0908 7.64604 19.7494C6.51823 19.2116 5.93179 18.3113 5.85267 16.9978C5.79944 16.11 5.97111 15.2443 6.1375 14.4075C6.26457 13.7681 6.38301 13.1166 6.49713 12.4864C6.61318 11.846 6.73353 11.1845 6.86252 10.5364C7.09173 9.38759 7.41588 8.05102 8.08576 6.84588C8.7892 5.58008 9.72137 4.85113 10.9355 4.61761C11.3412 4.53961 11.7267 4.50061 12.094 4.50061C13.0722 4.50061 13.919 4.77794 14.6618 5.33838C15.2861 5.80927 15.7766 6.46937 16.2053 7.41643C16.7261 8.5662 17.0042 9.79589 17.2272 10.9534C17.5441 12.5981 17.8131 14.0396 18.0495 15.3598C18.2059 16.2332 18.2082 16.9906 18.0567 17.6743C17.8213 18.7359 17.1442 19.4678 15.9857 19.9117C15.0334 20.2767 14.0197 20.3859 13.2424 20.4404C13.0861 20.4514 12.9269 20.4577 12.7586 20.4644H12.7524C12.7528 20.3802 12.7538 20.2964 12.7543 20.2131C12.7576 19.8101 12.761 19.4297 12.7452 19.0402L12.7457 19.0412ZM12.7394 16.8683C12.715 16.954 12.6694 17.0382 12.6047 17.1153C12.4618 17.2857 12.2479 17.3926 12.0321 17.4022C11.8226 17.4104 11.614 17.3291 11.4606 17.1769C11.3704 17.0878 11.3062 16.9824 11.2707 16.8683H12.7394V16.8683ZM6.79683 6.0553C6.6453 6.34948 6.50193 6.62729 6.3763 6.9157C5.79897 8.24216 5.49591 9.6187 5.25472 10.9086C5.20245 11.1883 5.15258 11.4724 5.10463 11.7473C5.02791 12.185 4.94879 12.6376 4.85816 13.0776C4.83611 13.1845 4.75651 13.3169 4.66444 13.3993C4.33837 13.692 3.93079 13.8514 3.45415 13.8721C2.93484 13.8942 2.59007 13.5307 2.53397 12.898C2.48266 12.3164 2.55219 11.7064 2.75886 10.9197C3.01588 9.94322 3.39757 8.93645 3.92599 7.84109C4.32303 7.01873 5.01544 6.49633 6.10537 6.19782C6.32595 6.13763 6.55516 6.09574 6.79683 6.05337C6.79683 6.05337 6.79683 6.05386 6.79683 6.05434V6.0553Z" fill="#00AFA1"/>
<path d="M9.44802 9.1748H9.44323C8.49139 9.1748 7.71267 9.9206 7.66951 10.8744C7.65704 11.1498 7.77021 11.4069 7.97256 11.561C8.09963 11.6583 8.25068 11.7078 8.407 11.7078C8.4866 11.7078 8.56716 11.6948 8.64724 11.6688C8.96323 11.5658 9.14881 11.314 9.17038 10.9606C9.17854 10.8296 9.22888 10.7531 9.33917 10.704C9.41733 10.6693 9.49357 10.6707 9.56071 10.7088C9.64222 10.755 9.69689 10.8479 9.71127 10.963C9.77169 11.4493 10.1184 11.7517 10.5543 11.6992C10.9964 11.6453 11.2582 11.2793 11.2064 10.7877C11.1081 9.85512 10.3687 9.17672 9.4485 9.17432L9.44802 9.1748Z" fill="#00AFA1"/>
<path d="M14.5635 10.6804H14.5654C14.7184 10.6813 14.8104 10.7906 14.8382 11.0054C14.8919 11.4204 15.2007 11.7064 15.5839 11.7064C15.604 11.7064 15.6237 11.7054 15.6443 11.704C16.0677 11.6713 16.3583 11.3188 16.3348 10.8657C16.2864 9.92013 15.5119 9.17769 14.5726 9.1748H14.5673C13.6265 9.1748 12.8641 9.89172 12.7931 10.8446C12.7596 11.2952 13.0405 11.6554 13.462 11.7006C13.8878 11.7464 14.2283 11.4589 14.2911 11.0015C14.3204 10.7882 14.4119 10.6804 14.5635 10.6804Z" fill="#00AFA1"/>
</g>
<defs>
<clipPath id="clip0_2335_219904">
<rect width="22" height="19" fill="white" transform="translate(1 3)"/>
</clipPath>
</defs>
</svg>
