<svg width="33" height="31" viewBox="0 0 33 31" fill="none" xmlns="http://www.w3.org/2000/svg">
<path d="M16.713 27.1326L21.5116 21.0228C20.1787 20.0681 18.5125 19.4953 16.713 19.4953C14.9136 19.4953 13.2474 20.0681 11.9145 21.0228L16.713 27.1326ZM16.713 4.2207C11.3147 4.2207 6.32951 5.92637 2.31738 8.80308L4.71666 11.858C8.04899 9.46498 12.2077 8.03935 16.713 8.03935C21.2183 8.03935 25.3771 9.46498 28.7094 11.858L31.1087 8.80308C27.0966 5.92637 22.1114 4.2207 16.713 4.2207ZM16.713 11.858C13.1141 11.858 9.79513 12.9909 7.11593 14.9129L9.51521 17.9678C11.5146 16.5295 14.0072 15.6766 16.713 15.6766C19.4189 15.6766 21.9115 16.5295 23.9109 17.9678L26.3101 14.9129C23.631 12.9909 20.312 11.858 16.713 11.858Z" fill="#CCE6E3"/>
</svg>
