<svg width="24" height="25" viewBox="0 0 24 25" fill="none" xmlns="http://www.w3.org/2000/svg">
<g clip-path="url(#clip0_2335_217519)">
<path d="M13.1572 2.5C13.612 2.59137 14.0734 2.65553 14.509 2.82184C16.5972 3.62004 17.8799 5.04601 18.1939 7.1434C18.4925 9.13606 17.7479 10.7899 16.1029 12.0825C15.955 12.1985 15.9506 12.24 16.1342 12.3119C18.0092 13.0434 19.4838 14.2235 20.5632 15.8317C21.3073 16.9399 21.7671 18.1472 21.9243 19.451C21.9846 19.9525 22.0361 20.453 21.9682 20.9607C21.7846 22.3261 20.4251 23.4918 18.9539 23.4944C14.6525 23.5021 10.3506 23.5021 6.04925 23.4944C4.57856 23.4918 3.20541 22.3276 3.04048 20.9601C2.92267 19.9823 3.07445 19.0234 3.37363 18.0897C4.235 15.399 6.04979 13.4869 8.78733 12.3422C8.82733 12.3253 8.86623 12.3052 8.90733 12.2929C9.0602 12.2477 9.04815 12.1954 8.93253 12.1097C7.96541 11.3926 7.30294 10.4809 6.9676 9.36808C6.54021 7.94878 6.68925 6.57722 7.45199 5.28881C8.29637 3.8613 9.58897 2.96968 11.2892 2.60369C11.4734 2.56416 11.6597 2.53439 11.8443 2.5C12.2816 2.5 12.7194 2.5 13.1566 2.5H13.1572ZM12.4936 21.8389C14.5857 21.8389 16.6783 21.8425 18.7703 21.8374C19.6525 21.8353 20.2525 21.2548 20.2268 20.4278C20.2131 19.9782 20.1736 19.5285 20.0723 19.0871C19.7227 17.56 18.9583 16.249 17.7155 15.2008C15.7808 13.5695 13.5123 12.9879 10.9682 13.4366C9.33199 13.725 7.94514 14.4812 6.81637 15.6371C5.49034 16.9953 4.83226 18.603 4.77253 20.434C4.76486 20.6614 4.79938 20.8867 4.91336 21.09C5.19664 21.5966 5.64651 21.8415 6.26075 21.8405C8.33856 21.8369 10.4158 21.8389 12.4936 21.8389V21.8389ZM16.4838 7.89078C16.4931 5.82316 14.7386 4.16056 12.5331 4.14618C10.3046 4.13181 8.52596 5.7821 8.51829 7.87127C8.51062 9.93837 10.2909 11.6215 12.4909 11.6261C14.6914 11.6307 16.475 9.96249 16.4838 7.89026V7.89078Z" fill="#00AFA1"/>
</g>
<defs>
<clipPath id="clip0_2335_217519">
<rect width="19" height="21" fill="white" transform="translate(3 2.5)"/>
</clipPath>
</defs>
</svg>
