<svg width="391" height="321" viewBox="0 0 391 321" fill="none" xmlns="http://www.w3.org/2000/svg">
<g clip-path="url(#clip0_2335_270463)">
<g clip-path="url(#clip1_2335_270463)">
<path d="M17.8502 25.64C77.0302 -44.68 148.88 108.48 226.78 87.18C304.69 65.88 361.35 70.61 384.37 125.05C407.39 179.49 367.45 349.9 253.74 316.77C140.03 283.63 125.86 178.02 60.3502 168.1C-5.16978 158.19 -14.0198 63.51 17.8502 25.64Z" fill="url(#paint0_radial_2335_270463)" fill-opacity="0.3"/>
<path d="M363.75 112.41V106.74C363.99 105.86 364.66 105.34 365.77 105.36C368.02 105.4 370.28 105.37 372.53 105.37C372.83 105.37 372.98 105.22 372.98 104.92C372.98 102.58 372.98 100.24 372.98 97.9C372.98 97.43 373.12 97.02 373.43 96.68C373.68 96.4 374.01 96.26 374.35 96.15H380.02C381.06 96.45 381.42 97.19 381.4 98.16C381.37 99.39 381.4 100.62 381.4 101.86C381.4 102.93 381.4 103.99 381.4 105.06C381.4 105.3 381.49 105.4 381.72 105.38C381.81 105.38 381.89 105.38 381.98 105.38C384.28 105.38 386.58 105.38 388.87 105.38C389.51 105.38 390.02 105.63 390.38 106.17C390.5 106.35 390.54 106.55 390.63 106.75V112.42C390.39 113.31 389.73 113.84 388.59 113.8C387.36 113.76 386.13 113.8 384.89 113.8C383.83 113.8 382.78 113.8 381.72 113.8C381.48 113.8 381.38 113.89 381.4 114.12C381.4 114.21 381.4 114.29 381.4 114.38C381.4 116.68 381.4 118.98 381.4 121.27C381.4 121.92 381.14 122.43 380.59 122.79C380.42 122.9 380.22 122.94 380.04 123.02H374.37C373.34 122.71 372.98 121.98 372.99 120.98C373.02 118.74 373 116.49 373 114.24C373 113.94 372.85 113.79 372.55 113.79C370.21 113.79 367.87 113.79 365.53 113.79C365.06 113.79 364.65 113.65 364.31 113.34C364.03 113.09 363.89 112.76 363.78 112.42L363.75 112.41Z" fill="#6D7F9E"/>
<path d="M71.9199 216.64V213.67C72.0399 213.21 72.3899 212.94 72.9799 212.95C74.1599 212.97 75.3399 212.95 76.5199 212.95C76.6799 212.95 76.7599 212.87 76.7599 212.71C76.7599 211.48 76.7599 210.26 76.7599 209.03C76.7599 208.79 76.8299 208.57 76.9999 208.39C77.1299 208.25 77.2999 208.17 77.4799 208.11H80.4499C80.9899 208.27 81.1799 208.65 81.1699 209.16C81.1499 209.8 81.1699 210.45 81.1699 211.09C81.1699 211.65 81.1699 212.21 81.1699 212.76C81.1699 212.88 81.2099 212.94 81.3399 212.93C81.3899 212.93 81.4299 212.93 81.4799 212.93C82.6799 212.93 83.8899 212.93 85.0899 212.93C85.4299 212.93 85.6899 213.06 85.8799 213.34C85.9399 213.43 85.9699 213.54 86.0099 213.64V216.61C85.8899 217.08 85.5399 217.35 84.9399 217.33C84.2999 217.31 83.6499 217.33 83.0099 217.33C82.4599 217.33 81.8999 217.33 81.3499 217.33C81.2299 217.33 81.1699 217.37 81.1799 217.5C81.1799 217.55 81.1799 217.59 81.1799 217.64C81.1799 218.84 81.1799 220.05 81.1799 221.25C81.1799 221.59 81.0399 221.86 80.7499 222.05C80.6599 222.11 80.5599 222.13 80.4599 222.17H77.4899C76.9499 222.01 76.7599 221.63 76.7699 221.1C76.7899 219.92 76.7699 218.75 76.7699 217.57C76.7699 217.41 76.6899 217.33 76.5299 217.33C75.2999 217.33 74.0799 217.33 72.8499 217.33C72.6099 217.33 72.3899 217.26 72.2099 217.09C72.0699 216.96 71.9899 216.79 71.9299 216.61L71.9199 216.64Z" fill="#6D7F9E"/>
<path d="M61.2803 8.50998V5.53998C61.4003 5.07998 61.7503 4.80998 62.3403 4.81998C63.5203 4.83998 64.7003 4.81998 65.8803 4.81998C66.0403 4.81998 66.1203 4.73998 66.1203 4.57998C66.1203 3.34998 66.1203 2.12998 66.1203 0.89998C66.1203 0.65998 66.1903 0.43998 66.3603 0.25998C66.4903 0.11998 66.6603 0.0399805 66.8403 -0.0200195H69.8103C70.3503 0.13998 70.5403 0.51998 70.5303 1.02998C70.5103 1.66998 70.5303 2.31998 70.5303 2.95998C70.5303 3.51998 70.5303 4.07998 70.5303 4.62998C70.5303 4.74998 70.5703 4.80998 70.7003 4.79998C70.7503 4.79998 70.7903 4.79998 70.8403 4.79998C72.0403 4.79998 73.2503 4.79998 74.4503 4.79998C74.7903 4.79998 75.0503 4.92998 75.2403 5.20998C75.3003 5.29998 75.3303 5.40998 75.3703 5.50998V8.47998C75.2503 8.94998 74.9003 9.21998 74.3003 9.19998C73.6603 9.17998 73.0103 9.19998 72.3703 9.19998C71.8203 9.19998 71.2603 9.19998 70.7103 9.19998C70.5903 9.19998 70.5303 9.23998 70.5403 9.36998C70.5403 9.41998 70.5403 9.45998 70.5403 9.50998C70.5403 10.71 70.5403 11.92 70.5403 13.12C70.5403 13.46 70.4003 13.73 70.1103 13.92C70.0203 13.98 69.9203 14 69.8203 14.04H66.8503C66.3103 13.88 66.1203 13.5 66.1303 12.97C66.1503 11.79 66.1303 10.62 66.1303 9.43998C66.1303 9.27998 66.0503 9.19998 65.8903 9.19998C64.6603 9.19998 63.4403 9.19998 62.2103 9.19998C61.9703 9.19998 61.7503 9.12998 61.5703 8.95998C61.4303 8.82998 61.3503 8.65998 61.2903 8.47998L61.2803 8.50998Z" fill="#6D7F9E"/>
<g clip-path="url(#clip2_2335_270463)">
<path d="M253.332 213.92C282.821 184.432 282.821 136.622 253.332 107.133C223.844 77.6447 176.033 77.6447 146.545 107.133C117.057 136.622 117.057 184.432 146.545 213.92C176.033 243.409 223.844 243.409 253.332 213.92Z" fill="#00AFA1"/>
<path d="M188.16 196.26C114.76 173.16 61.4504 141.77 66.8004 124.79C70.0004 114.61 93.2304 111.94 130.54 117.46C131.1 117.54 131.49 118.06 131.41 118.62C131.33 119.18 130.81 119.57 130.25 119.49H130.24C95.1004 114.29 71.5404 116.56 68.7604 125.41C63.9304 140.77 118.89 172.32 188.79 194.31C258.68 216.3 321.81 221.91 326.65 206.56C329.45 197.67 311.31 182.26 279.31 166.33C278.8 166.08 278.59 165.47 278.84 164.96C279.09 164.45 279.7 164.24 280.21 164.49C314.17 181.39 331.81 196.95 328.59 207.17C323.25 224.15 261.56 219.36 188.16 196.26Z" fill="#112145"/>
<path d="M197.06 186.27C122.09 203.62 60.2205 203.62 56.2105 186.27C53.8005 175.87 72.4705 161.78 107.41 147.61C107.93 147.39 108.53 147.64 108.75 148.16C108.97 148.68 108.72 149.28 108.2 149.5H108.19C75.2605 162.86 56.1105 176.77 58.2005 185.82C61.8305 201.5 125.2 200.8 196.59 184.28C267.98 167.76 325.22 140.56 321.59 124.87C319.49 115.79 296.04 111.71 260.38 114.23C259.82 114.27 259.32 113.85 259.28 113.29C259.24 112.73 259.66 112.23 260.22 112.19C298.06 109.52 321.15 113.97 323.57 124.41C327.581 141.75 272 168.93 197.03 186.27H197.06Z" fill="#112145"/>
<path d="M193.07 182.35C133.56 124.35 70.5696 117.3 71.7096 110.88C74.9096 100.7 98.1396 98.0299 135.45 103.55C136.01 103.63 136.4 104.15 136.32 104.71C136.24 105.27 135.72 105.66 135.16 105.58H135.15C100.01 100.38 76.4496 102.65 73.6696 111.5C68.8396 126.86 123.8 158.41 193.7 180.4C263.59 202.39 326.72 208 331.56 192.65C334.36 183.76 316.22 168.35 284.22 152.42C283.71 152.17 283.5 151.56 283.75 151.05C284 150.54 284.61 150.33 285.12 150.58C319.08 167.48 336.72 183.04 333.5 193.26C328.16 210.24 248.18 236.06 193.07 182.35Z" fill="#112145"/>
</g>
</g>
</g>
<defs>
<radialGradient id="paint0_radial_2335_270463" cx="0" cy="0" r="1" gradientUnits="userSpaceOnUse" gradientTransform="translate(200.005 164.133) scale(162.002 215.367)">
<stop stop-color="#97A4BA"/>
<stop offset="1" stop-color="#F3F7F5"/>
</radialGradient>
<clipPath id="clip0_2335_270463">
<rect width="390.61" height="321" fill="white"/>
</clipPath>
<clipPath id="clip1_2335_270463">
<rect width="390.61" height="321" fill="white"/>
</clipPath>
<clipPath id="clip2_2335_270463">
<rect width="277.87" height="151.06" fill="white" transform="translate(56 85)"/>
</clipPath>
</defs>
</svg>
