<svg width="296" height="238" viewBox="0 0 296 238" fill="none" xmlns="http://www.w3.org/2000/svg">
<rect opacity="0.2" width="415.441" height="23.4189" rx="11.7095" transform="matrix(0.694848 0.719156 0.719156 -0.694848 63 156.233)" fill="#C0C8D6"/>
<rect opacity="0.2" width="375" height="103" rx="51.5" transform="matrix(0.694848 0.719156 0.719156 -0.694848 27 50.3169)" fill="#A9D6D0"/>
<path d="M0 132.74V138.41C0.24 139.29 0.909989 139.81 2.01999 139.79C4.26999 139.75 6.53 139.78 8.78 139.78C9.08 139.78 9.23001 139.93 9.23001 140.23C9.23001 142.57 9.23001 144.91 9.23001 147.25C9.23001 147.72 9.36999 148.13 9.67999 148.47C9.92999 148.75 10.26 148.89 10.6 149H16.27C17.31 148.7 17.67 147.96 17.65 146.99C17.62 145.76 17.65 144.53 17.65 143.29C17.65 142.22 17.65 141.16 17.65 140.09C17.65 139.85 17.74 139.75 17.97 139.77C18.06 139.77 18.14 139.77 18.23 139.77C20.53 139.77 22.83 139.77 25.12 139.77C25.76 139.77 26.27 139.52 26.63 138.98C26.75 138.8 26.79 138.6 26.88 138.4V132.73C26.64 131.84 25.98 131.31 24.84 131.35C23.61 131.39 22.38 131.35 21.14 131.35C20.08 131.35 19.03 131.35 17.97 131.35C17.73 131.35 17.63 131.26 17.65 131.03C17.65 130.94 17.65 130.86 17.65 130.77C17.65 128.47 17.65 126.17 17.65 123.88C17.65 123.23 17.39 122.72 16.84 122.36C16.67 122.25 16.47 122.21 16.29 122.13H10.62C9.59 122.44 9.22999 123.17 9.23999 124.17C9.26999 126.41 9.25 128.66 9.25 130.91C9.25 131.21 9.09999 131.36 8.79999 131.36C6.45999 131.36 4.12 131.36 1.78 131.36C1.31 131.36 0.899998 131.5 0.559998 131.81C0.279998 132.06 0.139999 132.39 0.0299988 132.73L0 132.74Z" fill="#CBE6E3"/>
<path d="M134 24.7405V30.4105C134.24 31.2905 134.91 31.8105 136.02 31.7905C138.27 31.7505 140.53 31.7805 142.78 31.7805C143.08 31.7805 143.23 31.9305 143.23 32.2305C143.23 34.5705 143.23 36.9105 143.23 39.2505C143.23 39.7205 143.37 40.1305 143.68 40.4705C143.93 40.7505 144.26 40.8905 144.6 41.0005H150.27C151.31 40.7005 151.67 39.9605 151.65 38.9905C151.62 37.7605 151.65 36.5305 151.65 35.2905C151.65 34.2205 151.65 33.1605 151.65 32.0905C151.65 31.8505 151.74 31.7505 151.97 31.7705C152.06 31.7705 152.14 31.7705 152.23 31.7705C154.53 31.7705 156.83 31.7705 159.12 31.7705C159.76 31.7705 160.27 31.5205 160.63 30.9805C160.75 30.8005 160.79 30.6005 160.88 30.4005V24.7305C160.64 23.8405 159.98 23.3105 158.84 23.3505C157.61 23.3905 156.38 23.3505 155.14 23.3505C154.08 23.3505 153.03 23.3505 151.97 23.3505C151.73 23.3505 151.63 23.2605 151.65 23.0305C151.65 22.9405 151.65 22.8605 151.65 22.7705C151.65 20.4705 151.65 18.1705 151.65 15.8805C151.65 15.2305 151.39 14.7205 150.84 14.3605C150.67 14.2505 150.47 14.2105 150.29 14.1305H144.62C143.59 14.4405 143.23 15.1705 143.24 16.1705C143.27 18.4105 143.25 20.6605 143.25 22.9105C143.25 23.2105 143.1 23.3605 142.8 23.3605C140.46 23.3605 138.12 23.3605 135.78 23.3605C135.31 23.3605 134.9 23.5005 134.56 23.8105C134.28 24.0605 134.14 24.3905 134.03 24.7305L134 24.7405Z" fill="#C0C8D6"/>
</svg>
