<svg width="28" height="28" viewBox="0 0 28 28" fill="none" xmlns="http://www.w3.org/2000/svg">
<path d="M0.494141 17.1063V11.3636C0.73991 10.4723 1.42601 9.94562 2.56269 9.96587C4.86678 10.0064 7.18112 9.976 9.48521 9.976C9.79242 9.976 9.94604 9.82407 9.94604 9.52022C9.94604 7.1502 9.94604 4.78018 9.94604 2.41015C9.94604 1.93412 10.0894 1.51886 10.4068 1.17449C10.6628 0.890902 11.0008 0.749107 11.349 0.637695H17.1553C18.2203 0.941545 18.5889 1.69104 18.5684 2.67349C18.5377 3.91927 18.5684 5.16505 18.5684 6.42096C18.5684 7.50469 18.5684 8.57829 18.5684 9.66202C18.5684 9.9051 18.6606 10.0064 18.8961 9.98613C18.9883 9.98613 19.0702 9.98613 19.1624 9.98613C21.5177 9.98613 23.873 9.98613 26.218 9.98613C26.8734 9.98613 27.3957 10.2393 27.7643 10.7863C27.8872 10.9686 27.9282 11.1711 28.0203 11.3737V17.1165C27.7746 18.0179 27.0987 18.5547 25.9313 18.5142C24.6717 18.4737 23.4122 18.5142 22.1423 18.5142C21.0569 18.5142 19.9816 18.5142 18.8961 18.5142C18.6504 18.5142 18.5479 18.6053 18.5684 18.8383C18.5684 18.9294 18.5684 19.0105 18.5684 19.1016C18.5684 21.4311 18.5684 23.7606 18.5684 26.08C18.5684 26.7384 18.3022 27.2549 17.739 27.6195C17.5649 27.7309 17.3601 27.7714 17.1758 27.8525H11.3694C10.3147 27.5385 9.94601 26.7991 9.95625 25.7863C9.98698 23.5176 9.9665 21.2387 9.9665 18.9598C9.9665 18.656 9.81289 18.504 9.50567 18.504C7.10942 18.504 4.71318 18.504 2.31693 18.504C1.83563 18.504 1.41577 18.3622 1.0676 18.0483C0.780869 17.7951 0.637505 17.4608 0.524861 17.1165L0.494141 17.1063Z" fill="#6D7F9E"/>
</svg>
