<svg width="28" height="28" viewBox="0 0 28 28" fill="none" xmlns="http://www.w3.org/2000/svg">
<path d="M0.469727 16.4299V10.7599C0.709727 9.87992 1.37972 9.35992 2.48972 9.37992C4.73972 9.41992 6.99973 9.38992 9.24973 9.38992C9.54973 9.38992 9.69974 9.23992 9.69974 8.93992C9.69974 6.59992 9.69974 4.25992 9.69974 1.91992C9.69974 1.44992 9.83972 1.03992 10.1497 0.699921C10.3997 0.419921 10.7297 0.279922 11.0697 0.169922H16.7397C17.7797 0.469922 18.1397 1.20992 18.1197 2.17992C18.0897 3.40992 18.1197 4.63992 18.1197 5.87992C18.1197 6.94992 18.1197 8.00992 18.1197 9.07992C18.1197 9.31992 18.2097 9.41992 18.4397 9.39992C18.5297 9.39992 18.6097 9.39992 18.6997 9.39992C20.9997 9.39992 23.2997 9.39992 25.5897 9.39992C26.2297 9.39992 26.7397 9.64992 27.0997 10.1899C27.2197 10.3699 27.2597 10.5699 27.3497 10.7699V16.4399C27.1097 17.3299 26.4497 17.8599 25.3097 17.8199C24.0797 17.7799 22.8497 17.8199 21.6097 17.8199C20.5497 17.8199 19.4997 17.8199 18.4397 17.8199C18.1997 17.8199 18.0997 17.9099 18.1197 18.1399C18.1197 18.2299 18.1197 18.3099 18.1197 18.3999C18.1197 20.6999 18.1197 22.9999 18.1197 25.2899C18.1197 25.9399 17.8597 26.4499 17.3097 26.8099C17.1397 26.9199 16.9397 26.9599 16.7597 27.0399H11.0897C10.0597 26.7299 9.69972 25.9999 9.70972 24.9999C9.73972 22.7599 9.71973 20.5099 9.71973 18.2599C9.71973 17.9599 9.56971 17.8099 9.26971 17.8099C6.92971 17.8099 4.58973 17.8099 2.24973 17.8099C1.77973 17.8099 1.36972 17.6699 1.02972 17.3599C0.749724 17.1099 0.609725 16.7799 0.499725 16.4399L0.469727 16.4299Z" fill="#86C5BD"/>
</svg>
